<?xml version="1.0" encoding="utf-8"?>
<svg xmlns="http://www.w3.org/2000/svg" xmlns:xlink="http://www.w3.org/1999/xlink" width="600" height="400" viewBox="0 0 2400 1600">
<defs>
  <clipPath id="clip100">
    <rect x="0" y="0" width="2400" height="1600"/>
  </clipPath>
</defs>
<path clip-path="url(#clip100)" d="M0 1600 L2400 1600 L2400 0 L0 0  Z" fill="#ffffff" fill-rule="evenodd" fill-opacity="1"/>
<defs>
  <clipPath id="clip101">
    <rect x="480" y="0" width="1681" height="1600"/>
  </clipPath>
</defs>
<path clip-path="url(#clip100)" d="M287.366 1423.18 L2352.76 1423.18 L2352.76 47.2441 L287.366 47.2441  Z" fill="#ffffff" fill-rule="evenodd" fill-opacity="1"/>
<defs>
  <clipPath id="clip102">
    <rect x="287" y="47" width="2066" height="1377"/>
  </clipPath>
</defs>
<polyline clip-path="url(#clip102)" style="stroke:#000000; stroke-linecap:round; stroke-linejoin:round; stroke-width:2; stroke-opacity:0.1; fill:none" points="522.955,1423.18 522.955,47.2441 "/>
<polyline clip-path="url(#clip102)" style="stroke:#000000; stroke-linecap:round; stroke-linejoin:round; stroke-width:2; stroke-opacity:0.1; fill:none" points="877.224,1423.18 877.224,47.2441 "/>
<polyline clip-path="url(#clip102)" style="stroke:#000000; stroke-linecap:round; stroke-linejoin:round; stroke-width:2; stroke-opacity:0.1; fill:none" points="1231.49,1423.18 1231.49,47.2441 "/>
<polyline clip-path="url(#clip102)" style="stroke:#000000; stroke-linecap:round; stroke-linejoin:round; stroke-width:2; stroke-opacity:0.1; fill:none" points="1585.76,1423.18 1585.76,47.2441 "/>
<polyline clip-path="url(#clip102)" style="stroke:#000000; stroke-linecap:round; stroke-linejoin:round; stroke-width:2; stroke-opacity:0.1; fill:none" points="1940.03,1423.18 1940.03,47.2441 "/>
<polyline clip-path="url(#clip102)" style="stroke:#000000; stroke-linecap:round; stroke-linejoin:round; stroke-width:2; stroke-opacity:0.1; fill:none" points="2294.3,1423.18 2294.3,47.2441 "/>
<polyline clip-path="url(#clip102)" style="stroke:#000000; stroke-linecap:round; stroke-linejoin:round; stroke-width:2; stroke-opacity:0.1; fill:none" points="287.366,1276.8 2352.76,1276.8 "/>
<polyline clip-path="url(#clip102)" style="stroke:#000000; stroke-linecap:round; stroke-linejoin:round; stroke-width:2; stroke-opacity:0.1; fill:none" points="287.366,984.051 2352.76,984.051 "/>
<polyline clip-path="url(#clip102)" style="stroke:#000000; stroke-linecap:round; stroke-linejoin:round; stroke-width:2; stroke-opacity:0.1; fill:none" points="287.366,691.299 2352.76,691.299 "/>
<polyline clip-path="url(#clip102)" style="stroke:#000000; stroke-linecap:round; stroke-linejoin:round; stroke-width:2; stroke-opacity:0.1; fill:none" points="287.366,398.547 2352.76,398.547 "/>
<polyline clip-path="url(#clip102)" style="stroke:#000000; stroke-linecap:round; stroke-linejoin:round; stroke-width:2; stroke-opacity:0.1; fill:none" points="287.366,105.795 2352.76,105.795 "/>
<polyline clip-path="url(#clip100)" style="stroke:#000000; stroke-linecap:round; stroke-linejoin:round; stroke-width:4; stroke-opacity:1; fill:none" points="287.366,1423.18 2352.76,1423.18 "/>
<polyline clip-path="url(#clip100)" style="stroke:#000000; stroke-linecap:round; stroke-linejoin:round; stroke-width:4; stroke-opacity:1; fill:none" points="522.955,1423.18 522.955,1404.28 "/>
<polyline clip-path="url(#clip100)" style="stroke:#000000; stroke-linecap:round; stroke-linejoin:round; stroke-width:4; stroke-opacity:1; fill:none" points="877.224,1423.18 877.224,1404.28 "/>
<polyline clip-path="url(#clip100)" style="stroke:#000000; stroke-linecap:round; stroke-linejoin:round; stroke-width:4; stroke-opacity:1; fill:none" points="1231.49,1423.18 1231.49,1404.28 "/>
<polyline clip-path="url(#clip100)" style="stroke:#000000; stroke-linecap:round; stroke-linejoin:round; stroke-width:4; stroke-opacity:1; fill:none" points="1585.76,1423.18 1585.76,1404.28 "/>
<polyline clip-path="url(#clip100)" style="stroke:#000000; stroke-linecap:round; stroke-linejoin:round; stroke-width:4; stroke-opacity:1; fill:none" points="1940.03,1423.18 1940.03,1404.28 "/>
<polyline clip-path="url(#clip100)" style="stroke:#000000; stroke-linecap:round; stroke-linejoin:round; stroke-width:4; stroke-opacity:1; fill:none" points="2294.3,1423.18 2294.3,1404.28 "/>
<path clip-path="url(#clip100)" d="M513.337 1481.64 L520.976 1481.64 L520.976 1455.28 L512.666 1456.95 L512.666 1452.69 L520.93 1451.02 L525.605 1451.02 L525.605 1481.64 L533.244 1481.64 L533.244 1485.58 L513.337 1485.58 L513.337 1481.64 Z" fill="#000000" fill-rule="nonzero" fill-opacity="1" /><path clip-path="url(#clip100)" d="M871.877 1481.64 L888.196 1481.64 L888.196 1485.58 L866.252 1485.58 L866.252 1481.64 Q868.914 1478.89 873.497 1474.26 Q878.104 1469.61 879.284 1468.27 Q881.53 1465.74 882.409 1464.01 Q883.312 1462.25 883.312 1460.56 Q883.312 1457.8 881.368 1456.07 Q879.446 1454.33 876.345 1454.33 Q874.146 1454.33 871.692 1455.09 Q869.261 1455.86 866.484 1457.41 L866.484 1452.69 Q869.308 1451.55 871.761 1450.97 Q874.215 1450.39 876.252 1450.39 Q881.622 1450.39 884.817 1453.08 Q888.011 1455.77 888.011 1460.26 Q888.011 1462.39 887.201 1464.31 Q886.414 1466.2 884.308 1468.8 Q883.729 1469.47 880.627 1472.69 Q877.525 1475.88 871.877 1481.64 Z" fill="#000000" fill-rule="nonzero" fill-opacity="1" /><path clip-path="url(#clip100)" d="M1235.74 1466.95 Q1239.1 1467.66 1240.97 1469.93 Q1242.87 1472.2 1242.87 1475.53 Q1242.87 1480.65 1239.35 1483.45 Q1235.83 1486.25 1229.35 1486.25 Q1227.18 1486.25 1224.86 1485.81 Q1222.57 1485.39 1220.12 1484.54 L1220.12 1480.02 Q1222.06 1481.16 1224.38 1481.74 Q1226.69 1482.32 1229.21 1482.32 Q1233.61 1482.32 1235.9 1480.58 Q1238.22 1478.84 1238.22 1475.53 Q1238.22 1472.48 1236.07 1470.77 Q1233.94 1469.03 1230.12 1469.03 L1226.09 1469.03 L1226.09 1465.19 L1230.3 1465.19 Q1233.75 1465.19 1235.58 1463.82 Q1237.41 1462.43 1237.41 1459.84 Q1237.41 1457.18 1235.51 1455.77 Q1233.63 1454.33 1230.12 1454.33 Q1228.19 1454.33 1226 1454.75 Q1223.8 1455.16 1221.16 1456.04 L1221.16 1451.88 Q1223.82 1451.14 1226.13 1450.77 Q1228.47 1450.39 1230.53 1450.39 Q1235.86 1450.39 1238.96 1452.83 Q1242.06 1455.23 1242.06 1459.35 Q1242.06 1462.22 1240.42 1464.21 Q1238.77 1466.18 1235.74 1466.95 Z" fill="#000000" fill-rule="nonzero" fill-opacity="1" /><path clip-path="url(#clip100)" d="M1588.77 1455.09 L1576.97 1473.54 L1588.77 1473.54 L1588.77 1455.09 M1587.55 1451.02 L1593.42 1451.02 L1593.42 1473.54 L1598.36 1473.54 L1598.36 1477.43 L1593.42 1477.43 L1593.42 1485.58 L1588.77 1485.58 L1588.77 1477.43 L1573.17 1477.43 L1573.17 1472.92 L1587.55 1451.02 Z" fill="#000000" fill-rule="nonzero" fill-opacity="1" /><path clip-path="url(#clip100)" d="M1930.31 1451.02 L1948.67 1451.02 L1948.67 1454.96 L1934.59 1454.96 L1934.59 1463.43 Q1935.61 1463.08 1936.63 1462.92 Q1937.65 1462.73 1938.67 1462.73 Q1944.45 1462.73 1947.83 1465.9 Q1951.21 1469.08 1951.21 1474.49 Q1951.21 1480.07 1947.74 1483.17 Q1944.27 1486.25 1937.95 1486.25 Q1935.77 1486.25 1933.5 1485.88 Q1931.26 1485.51 1928.85 1484.77 L1928.85 1480.07 Q1930.94 1481.2 1933.16 1481.76 Q1935.38 1482.32 1937.86 1482.32 Q1941.86 1482.32 1944.2 1480.21 Q1946.54 1478.1 1946.54 1474.49 Q1946.54 1470.88 1944.2 1468.77 Q1941.86 1466.67 1937.86 1466.67 Q1935.98 1466.67 1934.11 1467.08 Q1932.25 1467.5 1930.31 1468.38 L1930.31 1451.02 Z" fill="#000000" fill-rule="nonzero" fill-opacity="1" /><path clip-path="url(#clip100)" d="M2294.71 1466.44 Q2291.56 1466.44 2289.71 1468.59 Q2287.88 1470.74 2287.88 1474.49 Q2287.88 1478.22 2289.71 1480.39 Q2291.56 1482.55 2294.71 1482.55 Q2297.85 1482.55 2299.68 1480.39 Q2301.54 1478.22 2301.54 1474.49 Q2301.54 1470.74 2299.68 1468.59 Q2297.85 1466.44 2294.71 1466.44 M2303.99 1451.78 L2303.99 1456.04 Q2302.23 1455.21 2300.42 1454.77 Q2298.64 1454.33 2296.88 1454.33 Q2292.25 1454.33 2289.8 1457.45 Q2287.37 1460.58 2287.02 1466.9 Q2288.39 1464.89 2290.45 1463.82 Q2292.51 1462.73 2294.98 1462.73 Q2300.19 1462.73 2303.2 1465.9 Q2306.23 1469.05 2306.23 1474.49 Q2306.23 1479.82 2303.09 1483.03 Q2299.94 1486.25 2294.71 1486.25 Q2288.71 1486.25 2285.54 1481.67 Q2282.37 1477.06 2282.37 1468.33 Q2282.37 1460.14 2286.26 1455.28 Q2290.15 1450.39 2296.7 1450.39 Q2298.46 1450.39 2300.24 1450.74 Q2302.04 1451.09 2303.99 1451.78 Z" fill="#000000" fill-rule="nonzero" fill-opacity="1" /><path clip-path="url(#clip100)" d="M1315.45 1568.04 L1304.56 1532.4 L1310.86 1532.4 L1320.06 1562.31 Q1323.88 1558.37 1327.06 1552.89 Q1329.48 1548.79 1329.61 1545.22 Q1329.67 1543.54 1328.91 1540.35 Q1328.02 1536.57 1324.64 1532.4 L1330.56 1532.4 L1330.56 1532.4 Q1332.76 1535.23 1334.22 1539.18 Q1335.56 1542.8 1335.56 1545.29 Q1335.56 1551.52 1331.23 1557.09 Q1325.6 1564.35 1321.68 1568.04 L1315.45 1568.04 Z" fill="#000000" fill-rule="nonzero" fill-opacity="1" /><polyline clip-path="url(#clip100)" style="stroke:#000000; stroke-linecap:round; stroke-linejoin:round; stroke-width:4; stroke-opacity:1; fill:none" points="287.366,1423.18 287.366,47.2441 "/>
<polyline clip-path="url(#clip100)" style="stroke:#000000; stroke-linecap:round; stroke-linejoin:round; stroke-width:4; stroke-opacity:1; fill:none" points="287.366,1276.8 306.264,1276.8 "/>
<polyline clip-path="url(#clip100)" style="stroke:#000000; stroke-linecap:round; stroke-linejoin:round; stroke-width:4; stroke-opacity:1; fill:none" points="287.366,984.051 306.264,984.051 "/>
<polyline clip-path="url(#clip100)" style="stroke:#000000; stroke-linecap:round; stroke-linejoin:round; stroke-width:4; stroke-opacity:1; fill:none" points="287.366,691.299 306.264,691.299 "/>
<polyline clip-path="url(#clip100)" style="stroke:#000000; stroke-linecap:round; stroke-linejoin:round; stroke-width:4; stroke-opacity:1; fill:none" points="287.366,398.547 306.264,398.547 "/>
<polyline clip-path="url(#clip100)" style="stroke:#000000; stroke-linecap:round; stroke-linejoin:round; stroke-width:4; stroke-opacity:1; fill:none" points="287.366,105.795 306.264,105.795 "/>
<path clip-path="url(#clip100)" d="M114.908 1277.26 L144.584 1277.26 L144.584 1281.19 L114.908 1281.19 L114.908 1277.26 Z" fill="#000000" fill-rule="nonzero" fill-opacity="1" /><path clip-path="url(#clip100)" d="M164.677 1277.67 Q161.343 1277.67 159.422 1279.45 Q157.524 1281.24 157.524 1284.36 Q157.524 1287.49 159.422 1289.27 Q161.343 1291.05 164.677 1291.05 Q168.01 1291.05 169.931 1289.27 Q171.852 1287.46 171.852 1284.36 Q171.852 1281.24 169.931 1279.45 Q168.033 1277.67 164.677 1277.67 M160.001 1275.68 Q156.991 1274.94 155.302 1272.88 Q153.635 1270.82 153.635 1267.86 Q153.635 1263.71 156.575 1261.31 Q159.538 1258.9 164.677 1258.9 Q169.839 1258.9 172.778 1261.31 Q175.718 1263.71 175.718 1267.86 Q175.718 1270.82 174.028 1272.88 Q172.362 1274.94 169.376 1275.68 Q172.755 1276.47 174.63 1278.76 Q176.528 1281.05 176.528 1284.36 Q176.528 1289.38 173.45 1292.07 Q170.394 1294.75 164.677 1294.75 Q158.959 1294.75 155.88 1292.07 Q152.825 1289.38 152.825 1284.36 Q152.825 1281.05 154.723 1278.76 Q156.621 1276.47 160.001 1275.68 M158.288 1268.3 Q158.288 1270.98 159.954 1272.49 Q161.644 1273.99 164.677 1273.99 Q167.686 1273.99 169.376 1272.49 Q171.089 1270.98 171.089 1268.3 Q171.089 1265.61 169.376 1264.11 Q167.686 1262.6 164.677 1262.6 Q161.644 1262.6 159.954 1264.11 Q158.288 1265.61 158.288 1268.3 Z" fill="#000000" fill-rule="nonzero" fill-opacity="1" /><path clip-path="url(#clip100)" d="M184.838 1288.2 L189.723 1288.2 L189.723 1294.08 L184.838 1294.08 L184.838 1288.2 Z" fill="#000000" fill-rule="nonzero" fill-opacity="1" /><path clip-path="url(#clip100)" d="M209.908 1277.67 Q206.574 1277.67 204.653 1279.45 Q202.755 1281.24 202.755 1284.36 Q202.755 1287.49 204.653 1289.27 Q206.574 1291.05 209.908 1291.05 Q213.241 1291.05 215.162 1289.27 Q217.084 1287.46 217.084 1284.36 Q217.084 1281.24 215.162 1279.45 Q213.264 1277.67 209.908 1277.67 M205.232 1275.68 Q202.223 1274.94 200.533 1272.88 Q198.866 1270.82 198.866 1267.86 Q198.866 1263.71 201.806 1261.31 Q204.769 1258.9 209.908 1258.9 Q215.07 1258.9 218.01 1261.31 Q220.949 1263.71 220.949 1267.86 Q220.949 1270.82 219.26 1272.88 Q217.593 1274.94 214.607 1275.68 Q217.986 1276.47 219.861 1278.76 Q221.76 1281.05 221.76 1284.36 Q221.76 1289.38 218.681 1292.07 Q215.625 1294.75 209.908 1294.75 Q204.19 1294.75 201.112 1292.07 Q198.056 1289.38 198.056 1284.36 Q198.056 1281.05 199.954 1278.76 Q201.852 1276.47 205.232 1275.68 M203.519 1268.3 Q203.519 1270.98 205.186 1272.49 Q206.875 1273.99 209.908 1273.99 Q212.917 1273.99 214.607 1272.49 Q216.32 1270.98 216.32 1268.3 Q216.32 1265.61 214.607 1264.11 Q212.917 1262.6 209.908 1262.6 Q206.875 1262.6 205.186 1264.11 Q203.519 1265.61 203.519 1268.3 Z" fill="#000000" fill-rule="nonzero" fill-opacity="1" /><path clip-path="url(#clip100)" d="M244.236 1275.45 Q247.593 1276.17 249.468 1278.44 Q251.366 1280.7 251.366 1284.04 Q251.366 1289.15 247.847 1291.95 Q244.329 1294.75 237.847 1294.75 Q235.672 1294.75 233.357 1294.32 Q231.065 1293.9 228.611 1293.04 L228.611 1288.53 Q230.556 1289.66 232.871 1290.24 Q235.185 1290.82 237.709 1290.82 Q242.107 1290.82 244.398 1289.08 Q246.713 1287.35 246.713 1284.04 Q246.713 1280.98 244.56 1279.27 Q242.431 1277.53 238.611 1277.53 L234.584 1277.53 L234.584 1273.69 L238.797 1273.69 Q242.246 1273.69 244.074 1272.32 Q245.903 1270.94 245.903 1268.34 Q245.903 1265.68 244.005 1264.27 Q242.13 1262.83 238.611 1262.83 Q236.69 1262.83 234.491 1263.25 Q232.292 1263.67 229.653 1264.55 L229.653 1260.38 Q232.315 1259.64 234.63 1259.27 Q236.968 1258.9 239.028 1258.9 Q244.352 1258.9 247.454 1261.33 Q250.556 1263.74 250.556 1267.86 Q250.556 1270.73 248.912 1272.72 Q247.269 1274.69 244.236 1275.45 Z" fill="#000000" fill-rule="nonzero" fill-opacity="1" /><path clip-path="url(#clip100)" d="M115.857 984.503 L145.533 984.503 L145.533 988.438 L115.857 988.438 L115.857 984.503 Z" fill="#000000" fill-rule="nonzero" fill-opacity="1" /><path clip-path="url(#clip100)" d="M165.626 984.919 Q162.292 984.919 160.371 986.702 Q158.473 988.484 158.473 991.609 Q158.473 994.734 160.371 996.517 Q162.292 998.299 165.626 998.299 Q168.959 998.299 170.88 996.517 Q172.802 994.711 172.802 991.609 Q172.802 988.484 170.88 986.702 Q168.982 984.919 165.626 984.919 M160.95 982.929 Q157.94 982.188 156.251 980.128 Q154.584 978.068 154.584 975.105 Q154.584 970.961 157.524 968.554 Q160.487 966.146 165.626 966.146 Q170.788 966.146 173.727 968.554 Q176.667 970.961 176.667 975.105 Q176.667 978.068 174.977 980.128 Q173.311 982.188 170.325 982.929 Q173.704 983.716 175.579 986.007 Q177.477 988.299 177.477 991.609 Q177.477 996.632 174.399 999.318 Q171.343 1002 165.626 1002 Q159.908 1002 156.829 999.318 Q153.774 996.632 153.774 991.609 Q153.774 988.299 155.672 986.007 Q157.57 983.716 160.95 982.929 M159.237 975.545 Q159.237 978.23 160.903 979.734 Q162.593 981.239 165.626 981.239 Q168.635 981.239 170.325 979.734 Q172.038 978.23 172.038 975.545 Q172.038 972.859 170.325 971.355 Q168.635 969.85 165.626 969.85 Q162.593 969.85 160.903 971.355 Q159.237 972.859 159.237 975.545 Z" fill="#000000" fill-rule="nonzero" fill-opacity="1" /><path clip-path="url(#clip100)" d="M185.788 995.452 L190.672 995.452 L190.672 1001.33 L185.788 1001.33 L185.788 995.452 Z" fill="#000000" fill-rule="nonzero" fill-opacity="1" /><path clip-path="url(#clip100)" d="M210.857 984.919 Q207.524 984.919 205.602 986.702 Q203.704 988.484 203.704 991.609 Q203.704 994.734 205.602 996.517 Q207.524 998.299 210.857 998.299 Q214.19 998.299 216.111 996.517 Q218.033 994.711 218.033 991.609 Q218.033 988.484 216.111 986.702 Q214.213 984.919 210.857 984.919 M206.181 982.929 Q203.172 982.188 201.482 980.128 Q199.815 978.068 199.815 975.105 Q199.815 970.961 202.755 968.554 Q205.718 966.146 210.857 966.146 Q216.019 966.146 218.959 968.554 Q221.898 970.961 221.898 975.105 Q221.898 978.068 220.209 980.128 Q218.542 982.188 215.556 982.929 Q218.936 983.716 220.811 986.007 Q222.709 988.299 222.709 991.609 Q222.709 996.632 219.63 999.318 Q216.574 1002 210.857 1002 Q205.139 1002 202.061 999.318 Q199.005 996.632 199.005 991.609 Q199.005 988.299 200.903 986.007 Q202.801 983.716 206.181 982.929 M204.468 975.545 Q204.468 978.23 206.135 979.734 Q207.824 981.239 210.857 981.239 Q213.866 981.239 215.556 979.734 Q217.269 978.23 217.269 975.545 Q217.269 972.859 215.556 971.355 Q213.866 969.85 210.857 969.85 Q207.824 969.85 206.135 971.355 Q204.468 972.859 204.468 975.545 Z" fill="#000000" fill-rule="nonzero" fill-opacity="1" /><path clip-path="url(#clip100)" d="M235.047 997.396 L251.366 997.396 L251.366 1001.33 L229.422 1001.33 L229.422 997.396 Q232.084 994.642 236.667 990.012 Q241.273 985.359 242.454 984.017 Q244.699 981.494 245.579 979.757 Q246.482 977.998 246.482 976.308 Q246.482 973.554 244.537 971.818 Q242.616 970.082 239.514 970.082 Q237.315 970.082 234.861 970.845 Q232.431 971.609 229.653 973.16 L229.653 968.438 Q232.477 967.304 234.931 966.725 Q237.384 966.146 239.422 966.146 Q244.792 966.146 247.986 968.832 Q251.181 971.517 251.181 976.007 Q251.181 978.137 250.371 980.058 Q249.584 981.957 247.477 984.549 Q246.898 985.22 243.797 988.438 Q240.695 991.632 235.047 997.396 Z" fill="#000000" fill-rule="nonzero" fill-opacity="1" /><path clip-path="url(#clip100)" d="M115.487 691.751 L145.163 691.751 L145.163 695.686 L115.487 695.686 L115.487 691.751 Z" fill="#000000" fill-rule="nonzero" fill-opacity="1" /><path clip-path="url(#clip100)" d="M165.255 692.167 Q161.922 692.167 160.001 693.95 Q158.103 695.732 158.103 698.857 Q158.103 701.982 160.001 703.764 Q161.922 705.547 165.255 705.547 Q168.589 705.547 170.51 703.764 Q172.431 701.959 172.431 698.857 Q172.431 695.732 170.51 693.95 Q168.612 692.167 165.255 692.167 M160.579 690.176 Q157.57 689.436 155.88 687.376 Q154.214 685.315 154.214 682.352 Q154.214 678.209 157.153 675.802 Q160.116 673.394 165.255 673.394 Q170.417 673.394 173.357 675.802 Q176.297 678.209 176.297 682.352 Q176.297 685.315 174.607 687.376 Q172.94 689.436 169.954 690.176 Q173.334 690.963 175.209 693.255 Q177.107 695.547 177.107 698.857 Q177.107 703.88 174.028 706.565 Q170.973 709.25 165.255 709.25 Q159.538 709.25 156.459 706.565 Q153.403 703.88 153.403 698.857 Q153.403 695.547 155.302 693.255 Q157.2 690.963 160.579 690.176 M158.866 682.792 Q158.866 685.477 160.533 686.982 Q162.223 688.487 165.255 688.487 Q168.264 688.487 169.954 686.982 Q171.667 685.477 171.667 682.792 Q171.667 680.107 169.954 678.602 Q168.264 677.098 165.255 677.098 Q162.223 677.098 160.533 678.602 Q158.866 680.107 158.866 682.792 Z" fill="#000000" fill-rule="nonzero" fill-opacity="1" /><path clip-path="url(#clip100)" d="M185.417 702.7 L190.301 702.7 L190.301 708.579 L185.417 708.579 L185.417 702.7 Z" fill="#000000" fill-rule="nonzero" fill-opacity="1" /><path clip-path="url(#clip100)" d="M210.486 692.167 Q207.153 692.167 205.232 693.95 Q203.334 695.732 203.334 698.857 Q203.334 701.982 205.232 703.764 Q207.153 705.547 210.486 705.547 Q213.82 705.547 215.741 703.764 Q217.662 701.959 217.662 698.857 Q217.662 695.732 215.741 693.95 Q213.843 692.167 210.486 692.167 M205.811 690.176 Q202.801 689.436 201.112 687.376 Q199.445 685.315 199.445 682.352 Q199.445 678.209 202.385 675.802 Q205.348 673.394 210.486 673.394 Q215.649 673.394 218.588 675.802 Q221.528 678.209 221.528 682.352 Q221.528 685.315 219.838 687.376 Q218.172 689.436 215.186 690.176 Q218.565 690.963 220.44 693.255 Q222.338 695.547 222.338 698.857 Q222.338 703.88 219.26 706.565 Q216.204 709.25 210.486 709.25 Q204.769 709.25 201.69 706.565 Q198.635 703.88 198.635 698.857 Q198.635 695.547 200.533 693.255 Q202.431 690.963 205.811 690.176 M204.098 682.792 Q204.098 685.477 205.764 686.982 Q207.454 688.487 210.486 688.487 Q213.496 688.487 215.186 686.982 Q216.898 685.477 216.898 682.792 Q216.898 680.107 215.186 678.602 Q213.496 677.098 210.486 677.098 Q207.454 677.098 205.764 678.602 Q204.098 680.107 204.098 682.792 Z" fill="#000000" fill-rule="nonzero" fill-opacity="1" /><path clip-path="url(#clip100)" d="M231.459 704.644 L239.097 704.644 L239.097 678.278 L230.787 679.945 L230.787 675.686 L239.051 674.019 L243.727 674.019 L243.727 704.644 L251.366 704.644 L251.366 708.579 L231.459 708.579 L231.459 704.644 Z" fill="#000000" fill-rule="nonzero" fill-opacity="1" /><path clip-path="url(#clip100)" d="M114.26 398.998 L143.936 398.998 L143.936 402.933 L114.26 402.933 L114.26 398.998 Z" fill="#000000" fill-rule="nonzero" fill-opacity="1" /><path clip-path="url(#clip100)" d="M164.028 399.415 Q160.695 399.415 158.774 401.197 Q156.876 402.98 156.876 406.105 Q156.876 409.23 158.774 411.012 Q160.695 412.794 164.028 412.794 Q167.362 412.794 169.283 411.012 Q171.204 409.207 171.204 406.105 Q171.204 402.98 169.283 401.197 Q167.385 399.415 164.028 399.415 M159.353 397.424 Q156.343 396.683 154.653 394.623 Q152.987 392.563 152.987 389.6 Q152.987 385.457 155.927 383.049 Q158.89 380.642 164.028 380.642 Q169.19 380.642 172.13 383.049 Q175.07 385.457 175.07 389.6 Q175.07 392.563 173.38 394.623 Q171.714 396.683 168.727 397.424 Q172.107 398.211 173.982 400.503 Q175.88 402.795 175.88 406.105 Q175.88 411.128 172.802 413.813 Q169.746 416.498 164.028 416.498 Q158.311 416.498 155.232 413.813 Q152.177 411.128 152.177 406.105 Q152.177 402.795 154.075 400.503 Q155.973 398.211 159.353 397.424 M157.64 390.04 Q157.64 392.725 159.306 394.23 Q160.996 395.734 164.028 395.734 Q167.038 395.734 168.727 394.23 Q170.44 392.725 170.44 390.04 Q170.44 387.355 168.727 385.85 Q167.038 384.346 164.028 384.346 Q160.996 384.346 159.306 385.85 Q157.64 387.355 157.64 390.04 Z" fill="#000000" fill-rule="nonzero" fill-opacity="1" /><path clip-path="url(#clip100)" d="M184.19 409.947 L189.075 409.947 L189.075 415.827 L184.19 415.827 L184.19 409.947 Z" fill="#000000" fill-rule="nonzero" fill-opacity="1" /><path clip-path="url(#clip100)" d="M209.26 399.415 Q205.926 399.415 204.005 401.197 Q202.107 402.98 202.107 406.105 Q202.107 409.23 204.005 411.012 Q205.926 412.794 209.26 412.794 Q212.593 412.794 214.514 411.012 Q216.436 409.207 216.436 406.105 Q216.436 402.98 214.514 401.197 Q212.616 399.415 209.26 399.415 M204.584 397.424 Q201.575 396.683 199.885 394.623 Q198.218 392.563 198.218 389.6 Q198.218 385.457 201.158 383.049 Q204.121 380.642 209.26 380.642 Q214.422 380.642 217.361 383.049 Q220.301 385.457 220.301 389.6 Q220.301 392.563 218.611 394.623 Q216.945 396.683 213.959 397.424 Q217.338 398.211 219.213 400.503 Q221.111 402.795 221.111 406.105 Q221.111 411.128 218.033 413.813 Q214.977 416.498 209.26 416.498 Q203.542 416.498 200.463 413.813 Q197.408 411.128 197.408 406.105 Q197.408 402.795 199.306 400.503 Q201.204 398.211 204.584 397.424 M202.871 390.04 Q202.871 392.725 204.537 394.23 Q206.227 395.734 209.26 395.734 Q212.269 395.734 213.959 394.23 Q215.672 392.725 215.672 390.04 Q215.672 387.355 213.959 385.85 Q212.269 384.346 209.26 384.346 Q206.227 384.346 204.537 385.85 Q202.871 387.355 202.871 390.04 Z" fill="#000000" fill-rule="nonzero" fill-opacity="1" /><path clip-path="url(#clip100)" d="M239.422 384.346 Q235.81 384.346 233.982 387.91 Q232.176 391.452 232.176 398.582 Q232.176 405.688 233.982 409.253 Q235.81 412.794 239.422 412.794 Q243.056 412.794 244.861 409.253 Q246.69 405.688 246.69 398.582 Q246.69 391.452 244.861 387.91 Q243.056 384.346 239.422 384.346 M239.422 380.642 Q245.232 380.642 248.287 385.248 Q251.366 389.832 251.366 398.582 Q251.366 407.308 248.287 411.915 Q245.232 416.498 239.422 416.498 Q233.611 416.498 230.533 411.915 Q227.477 407.308 227.477 398.582 Q227.477 389.832 230.533 385.248 Q233.611 380.642 239.422 380.642 Z" fill="#000000" fill-rule="nonzero" fill-opacity="1" /><path clip-path="url(#clip100)" d="M114.445 106.246 L144.121 106.246 L144.121 110.181 L114.445 110.181 L114.445 106.246 Z" fill="#000000" fill-rule="nonzero" fill-opacity="1" /><path clip-path="url(#clip100)" d="M164.214 106.663 Q160.88 106.663 158.959 108.445 Q157.061 110.227 157.061 113.352 Q157.061 116.477 158.959 118.26 Q160.88 120.042 164.214 120.042 Q167.547 120.042 169.468 118.26 Q171.389 116.454 171.389 113.352 Q171.389 110.227 169.468 108.445 Q167.57 106.663 164.214 106.663 M159.538 104.672 Q156.528 103.931 154.839 101.871 Q153.172 99.8108 153.172 96.8478 Q153.172 92.7043 156.112 90.2969 Q159.075 87.8896 164.214 87.8896 Q169.376 87.8896 172.315 90.2969 Q175.255 92.7043 175.255 96.8478 Q175.255 99.8108 173.565 101.871 Q171.899 103.931 168.913 104.672 Q172.292 105.459 174.167 107.751 Q176.065 110.042 176.065 113.352 Q176.065 118.376 172.987 121.061 Q169.931 123.746 164.214 123.746 Q158.496 123.746 155.417 121.061 Q152.362 118.376 152.362 113.352 Q152.362 110.042 154.26 107.751 Q156.158 105.459 159.538 104.672 M157.825 97.2877 Q157.825 99.9728 159.491 101.477 Q161.181 102.982 164.214 102.982 Q167.223 102.982 168.913 101.477 Q170.626 99.9728 170.626 97.2877 Q170.626 94.6025 168.913 93.0979 Q167.223 91.5932 164.214 91.5932 Q161.181 91.5932 159.491 93.0979 Q157.825 94.6025 157.825 97.2877 Z" fill="#000000" fill-rule="nonzero" fill-opacity="1" /><path clip-path="url(#clip100)" d="M184.376 117.195 L189.26 117.195 L189.26 123.075 L184.376 123.075 L184.376 117.195 Z" fill="#000000" fill-rule="nonzero" fill-opacity="1" /><path clip-path="url(#clip100)" d="M198.264 88.5146 L220.486 88.5146 L220.486 90.5053 L207.94 123.075 L203.056 123.075 L214.861 92.4497 L198.264 92.4497 L198.264 88.5146 Z" fill="#000000" fill-rule="nonzero" fill-opacity="1" /><path clip-path="url(#clip100)" d="M229.746 122.357 L229.746 118.098 Q231.505 118.931 233.31 119.371 Q235.116 119.811 236.852 119.811 Q241.482 119.811 243.912 116.709 Q246.366 113.584 246.713 107.241 Q245.371 109.232 243.31 110.297 Q241.25 111.362 238.75 111.362 Q233.565 111.362 230.533 108.237 Q227.523 105.089 227.523 99.6488 Q227.523 94.3247 230.672 91.1071 Q233.82 87.8896 239.051 87.8896 Q245.046 87.8896 248.195 92.496 Q251.366 97.0793 251.366 105.829 Q251.366 114.001 247.477 118.885 Q243.611 123.746 237.06 123.746 Q235.301 123.746 233.496 123.399 Q231.69 123.051 229.746 122.357 M239.051 107.704 Q242.199 107.704 244.028 105.551 Q245.88 103.399 245.88 99.6488 Q245.88 95.9219 244.028 93.7692 Q242.199 91.5932 239.051 91.5932 Q235.903 91.5932 234.051 93.7692 Q232.222 95.9219 232.222 99.6488 Q232.222 103.399 234.051 105.551 Q235.903 107.704 239.051 107.704 Z" fill="#000000" fill-rule="nonzero" fill-opacity="1" /><path clip-path="url(#clip100)" d="M16.4842 1105.76 L16.4842 1096.18 L48.8219 1084.05 L16.4842 1071.86 L16.4842 1062.28 L64.0042 1062.28 L64.0042 1068.55 L22.277 1068.55 L54.8694 1080.81 L54.8694 1087.27 L22.277 1099.52 L64.0042 1099.52 L64.0042 1105.76 L16.4842 1105.76 Z" fill="#000000" fill-rule="nonzero" fill-opacity="1" /><path clip-path="url(#clip100)" d="M46.0847 1033.57 Q46.0847 1040.67 47.7079 1043.41 Q49.3312 1046.14 53.2461 1046.14 Q56.3653 1046.14 58.2114 1044.11 Q60.0256 1042.04 60.0256 1038.51 Q60.0256 1033.64 56.5881 1030.71 Q53.1188 1027.75 47.3897 1027.75 L46.0847 1027.75 L46.0847 1033.57 M43.6657 1021.89 L64.0042 1021.89 L64.0042 1027.75 L58.5933 1027.75 Q61.8398 1029.75 63.3994 1032.75 Q64.9272 1035.74 64.9272 1040.07 Q64.9272 1045.54 61.8716 1048.79 Q58.7843 1052 53.6281 1052 Q47.6125 1052 44.5569 1047.99 Q41.5014 1043.95 41.5014 1035.96 L41.5014 1027.75 L40.9285 1027.75 Q36.8862 1027.75 34.6901 1030.42 Q32.4621 1033.06 32.4621 1037.87 Q32.4621 1040.93 33.1941 1043.82 Q33.9262 1046.72 35.3903 1049.39 L29.9795 1049.39 Q28.7381 1046.18 28.1334 1043.15 Q27.4968 1040.13 27.4968 1037.26 Q27.4968 1029.53 31.5072 1025.71 Q35.5176 1021.89 43.6657 1021.89 Z" fill="#000000" fill-rule="nonzero" fill-opacity="1" /><path clip-path="url(#clip100)" d="M28.3562 980.196 L45.7028 993.087 L64.0042 979.528 L64.0042 986.435 L49.9996 996.811 L64.0042 1007.19 L64.0042 1014.09 L45.3526 1000.25 L28.3562 1012.92 L28.3562 1006.01 L41.0558 996.556 L28.3562 987.103 L28.3562 980.196 Z" fill="#000000" fill-rule="nonzero" fill-opacity="1" /><path clip-path="url(#clip100)" d="M28.3562 971.252 L28.3562 965.396 L64.0042 965.396 L64.0042 971.252 L28.3562 971.252 M14.479 971.252 L14.479 965.396 L21.895 965.396 L21.895 971.252 L14.479 971.252 Z" fill="#000000" fill-rule="nonzero" fill-opacity="1" /><path clip-path="url(#clip100)" d="M35.1993 925.387 Q31.2526 923.191 29.3747 920.136 Q27.4968 917.08 27.4968 912.942 Q27.4968 907.373 31.4117 904.349 Q35.2948 901.325 42.4881 901.325 L64.0042 901.325 L64.0042 907.213 L42.679 907.213 Q37.5546 907.213 35.072 909.028 Q32.5894 910.842 32.5894 914.566 Q32.5894 919.117 35.6131 921.759 Q38.6368 924.401 43.8567 924.401 L64.0042 924.401 L64.0042 930.289 L42.679 930.289 Q37.5228 930.289 35.072 932.103 Q32.5894 933.918 32.5894 937.705 Q32.5894 942.193 35.6449 944.835 Q38.6686 947.476 43.8567 947.476 L64.0042 947.476 L64.0042 953.365 L28.3562 953.365 L28.3562 947.476 L33.8944 947.476 Q30.616 945.471 29.0564 942.67 Q27.4968 939.869 27.4968 936.018 Q27.4968 932.135 29.4702 929.43 Q31.4436 926.692 35.1993 925.387 Z" fill="#000000" fill-rule="nonzero" fill-opacity="1" /><path clip-path="url(#clip100)" d="M49.9359 890.249 L28.3562 890.249 L28.3562 884.392 L49.7131 884.392 Q54.7739 884.392 57.3202 882.419 Q59.8346 880.446 59.8346 876.499 Q59.8346 871.756 56.8109 869.019 Q53.7872 866.25 48.5673 866.25 L28.3562 866.25 L28.3562 860.394 L64.0042 860.394 L64.0042 866.25 L58.5296 866.25 Q61.7762 868.383 63.3676 871.215 Q64.9272 874.016 64.9272 877.74 Q64.9272 883.883 61.1078 887.066 Q57.2883 890.249 49.9359 890.249 M27.4968 875.512 L27.4968 875.512 Z" fill="#000000" fill-rule="nonzero" fill-opacity="1" /><path clip-path="url(#clip100)" d="M35.1993 820.576 Q31.2526 818.38 29.3747 815.324 Q27.4968 812.269 27.4968 808.131 Q27.4968 802.561 31.4117 799.537 Q35.2948 796.514 42.4881 796.514 L64.0042 796.514 L64.0042 802.402 L42.679 802.402 Q37.5546 802.402 35.072 804.216 Q32.5894 806.03 32.5894 809.754 Q32.5894 814.306 35.6131 816.948 Q38.6368 819.589 43.8567 819.589 L64.0042 819.589 L64.0042 825.478 L42.679 825.478 Q37.5228 825.478 35.072 827.292 Q32.5894 829.106 32.5894 832.894 Q32.5894 837.382 35.6449 840.023 Q38.6686 842.665 43.8567 842.665 L64.0042 842.665 L64.0042 848.553 L28.3562 848.553 L28.3562 842.665 L33.8944 842.665 Q30.616 840.66 29.0564 837.859 Q27.4968 835.058 27.4968 831.207 Q27.4968 827.324 29.4702 824.618 Q31.4436 821.881 35.1993 820.576 Z" fill="#000000" fill-rule="nonzero" fill-opacity="1" /><path clip-path="url(#clip100)" d="M16.4842 763.858 L16.4842 757.428 L58.5933 757.428 L58.5933 734.289 L64.0042 734.289 L64.0042 763.858 L16.4842 763.858 Z" fill="#000000" fill-rule="nonzero" fill-opacity="1" /><path clip-path="url(#clip100)" d="M16.4842 727.541 L16.4842 721.112 L58.5933 721.112 L58.5933 697.973 L64.0042 697.973 L64.0042 727.541 L16.4842 727.541 Z" fill="#000000" fill-rule="nonzero" fill-opacity="1" /><path clip-path="url(#clip100)" d="M32.4621 656.946 Q32.4621 661.656 36.1542 664.393 Q39.8145 667.131 46.212 667.131 Q52.6095 667.131 56.3017 664.425 Q59.9619 661.688 59.9619 656.946 Q59.9619 652.267 56.2698 649.53 Q52.5777 646.792 46.212 646.792 Q39.8781 646.792 36.186 649.53 Q32.4621 652.267 32.4621 656.946 M27.4968 656.946 Q27.4968 649.307 32.4621 644.946 Q37.4273 640.586 46.212 640.586 Q54.9649 640.586 59.9619 644.946 Q64.9272 649.307 64.9272 656.946 Q64.9272 664.616 59.9619 668.977 Q54.9649 673.305 46.212 673.305 Q37.4273 673.305 32.4621 668.977 Q27.4968 664.616 27.4968 656.946 Z" fill="#000000" fill-rule="nonzero" fill-opacity="1" /><path clip-path="url(#clip100)" d="M28.3562 635.079 L28.3562 628.873 L58.275 617.733 L28.3562 606.593 L28.3562 600.386 L64.0042 613.754 L64.0042 621.711 L28.3562 635.079 Z" fill="#000000" fill-rule="nonzero" fill-opacity="1" /><path clip-path="url(#clip100)" d="M44.7161 561.81 L47.5806 561.81 L47.5806 588.737 Q53.6281 588.355 56.8109 585.109 Q59.9619 581.83 59.9619 576.006 Q59.9619 572.632 59.1344 569.481 Q58.3069 566.298 56.6518 563.179 L62.1899 563.179 Q63.5267 566.33 64.227 569.64 Q64.9272 572.95 64.9272 576.356 Q64.9272 584.886 59.9619 589.883 Q54.9967 594.848 46.5303 594.848 Q37.7774 594.848 32.6531 590.138 Q27.4968 585.395 27.4968 577.374 Q27.4968 570.181 32.1438 566.011 Q36.7589 561.81 44.7161 561.81 M42.9973 567.667 Q38.1912 567.73 35.3266 570.372 Q32.4621 572.982 32.4621 577.311 Q32.4621 582.212 35.2312 585.172 Q38.0002 588.1 43.0292 588.546 L42.9973 567.667 Z" fill="#000000" fill-rule="nonzero" fill-opacity="1" /><path clip-path="url(#clip100)" d="M33.8307 531.541 Q33.2578 532.528 33.0032 533.706 Q32.7167 534.851 32.7167 536.252 Q32.7167 541.217 35.9632 543.891 Q39.1779 546.532 45.2253 546.532 L64.0042 546.532 L64.0042 552.421 L28.3562 552.421 L28.3562 546.532 L33.8944 546.532 Q30.6479 544.686 29.0883 541.726 Q27.4968 538.766 27.4968 534.533 Q27.4968 533.928 27.5923 533.196 Q27.656 532.464 27.8151 531.573 L33.8307 531.541 Z" fill="#000000" fill-rule="nonzero" fill-opacity="1" /><path clip-path="url(#clip100)" d="M34.7219 502.036 Q31.4754 500.095 28.6108 495.288 Q27.4968 493.411 27.4968 487.618 Q27.4968 481.125 32.6531 477.083 Q37.8093 473.009 46.212 473.009 Q54.6147 473.009 59.771 477.083 Q64.9272 481.125 64.9272 487.618 Q64.9272 491.533 63.3994 494.365 Q61.8398 497.166 58.657 499.012 L77.5631 499.012 L77.5631 504.901 L46.5303 504.901 Q39.1779 504.901 34.7219 502.036 M46.212 479.088 Q39.7508 479.088 36.0905 481.761 Q32.3984 484.403 32.3984 489.05 Q32.3984 493.697 36.0905 496.371 Q39.7508 499.012 46.212 499.012 Q52.6732 499.012 56.3653 496.371 Q60.0256 493.697 60.0256 489.05 Q60.0256 484.403 56.3653 481.761 Q52.6732 479.088 46.212 479.088 Z" fill="#000000" fill-rule="nonzero" fill-opacity="1" /><path clip-path="url(#clip100)" d="M55.9197 461.805 L55.9197 455.089 L61.3942 455.089 L71.5793 460.309 L71.5793 464.415 L61.3942 461.805 L55.9197 461.805 Z" fill="#000000" fill-rule="nonzero" fill-opacity="1" /><path clip-path="url(#clip100)" d="M33.0032 408.046 Q33.0032 412.884 36.5043 415.494 Q40.1646 418.232 46.212 418.232 Q52.6095 418.232 56.3017 415.526 Q59.9619 412.789 59.9619 408.046 Q59.9619 403.368 56.2698 400.63 Q52.5777 397.893 46.212 397.893 Q40.3874 397.893 36.5043 400.63 Q33.0032 403.145 33.0032 408.046 M28.3562 408.046 L28.3562 388.599 L34.2127 388.599 L34.2127 395.156 Q39.1779 391.687 46.212 391.687 Q54.9649 391.687 59.9301 396.047 Q64.9272 400.408 64.9272 408.046 Q64.9272 415.717 59.9301 420.046 Q54.9649 424.406 46.212 424.406 Q37.3955 424.406 32.4621 420.046 Q28.3562 416.449 28.3562 408.046 Z" fill="#000000" fill-rule="nonzero" fill-opacity="1" /><path clip-path="url(#clip100)" d="M39.1142 378.159 L39.1142 364.664 L42.7427 364.664 L42.7427 383.698 L39.2416 383.698 Q38.2549 382.615 36.4725 380.61 Q26.7648 369.661 23.7729 369.661 Q21.6722 369.661 20.3991 371.316 Q19.0941 372.971 19.0941 375.677 Q19.0941 377.332 19.667 379.273 Q20.2081 381.215 21.3221 383.507 L17.4072 383.507 Q16.516 381.056 16.0704 378.955 Q15.6248 376.823 15.6248 375.008 Q15.6248 370.393 17.7255 367.624 Q19.8262 364.855 23.2636 364.855 Q27.6878 364.855 36.7271 375.39 Q38.2549 377.173 39.1142 378.159 Z" fill="#000000" fill-rule="nonzero" fill-opacity="1" /><polyline clip-path="url(#clip102)" style="stroke:#009af9; stroke-linecap:round; stroke-linejoin:round; stroke-width:8; stroke-opacity:1; fill:none" points="345.82,59089 700.09,71722.2 1054.36,74745.3 1408.63,76086.7 1762.9,76842.3 2117.17,77326.7 2294.3,77509 "/>
<polyline clip-path="url(#clip102)" style="stroke:#000000; stroke-linecap:round; stroke-linejoin:round; stroke-width:8; stroke-opacity:1; fill:none" stroke-dasharray="32, 20" points="345.82,2799.12 345.82,-1328.69 "/>
<path clip-path="url(#clip100)" d="M1792.77 196.789 L2283.91 196.789 L2283.91 93.1086 L1792.77 93.1086  Z" fill="#ffffff" fill-rule="evenodd" fill-opacity="1"/>
<polyline clip-path="url(#clip100)" style="stroke:#000000; stroke-linecap:round; stroke-linejoin:round; stroke-width:4; stroke-opacity:1; fill:none" points="1792.77,196.789 2283.91,196.789 2283.91,93.1086 1792.77,93.1086 1792.77,196.789 "/>
<polyline clip-path="url(#clip100)" style="stroke:#000000; stroke-linecap:round; stroke-linejoin:round; stroke-width:8; stroke-opacity:1; fill:none" stroke-dasharray="32, 20" points="1815.71,144.949 1953.41,144.949 "/>
<path clip-path="url(#clip100)" d="M1976.36 127.669 L1983.32 127.669 L1992.14 151.187 L2001.01 127.669 L2007.98 127.669 L2007.98 162.229 L2003.42 162.229 L2003.42 131.882 L1994.5 155.585 L1989.8 155.585 L1980.89 131.882 L1980.89 162.229 L1976.36 162.229 L1976.36 127.669 Z" fill="#000000" fill-rule="nonzero" fill-opacity="1" /><path clip-path="url(#clip100)" d="M2017.26 127.669 L2021.93 127.669 L2021.93 158.293 L2038.76 158.293 L2038.76 162.229 L2017.26 162.229 L2017.26 127.669 Z" fill="#000000" fill-rule="nonzero" fill-opacity="1" /><path clip-path="url(#clip100)" d="M2058.74 127.669 L2080.59 127.669 L2080.59 131.604 L2063.42 131.604 L2063.42 141.835 L2079.87 141.835 L2079.87 145.77 L2063.42 145.77 L2063.42 158.293 L2081.01 158.293 L2081.01 162.229 L2058.74 162.229 L2058.74 127.669 Z" fill="#000000" fill-rule="nonzero" fill-opacity="1" /><path clip-path="url(#clip100)" d="M2105.04 137.067 L2105.04 141.094 Q2103.23 140.169 2101.29 139.706 Q2099.34 139.243 2097.26 139.243 Q2094.09 139.243 2092.49 140.215 Q2090.92 141.187 2090.92 143.131 Q2090.92 144.613 2092.05 145.469 Q2093.18 146.303 2096.61 147.067 L2098.07 147.391 Q2102.61 148.363 2104.5 150.145 Q2106.42 151.905 2106.42 155.076 Q2106.42 158.687 2103.55 160.793 Q2100.71 162.9 2095.71 162.9 Q2093.62 162.9 2091.36 162.483 Q2089.11 162.09 2086.61 161.28 L2086.61 156.881 Q2088.97 158.108 2091.26 158.733 Q2093.55 159.335 2095.8 159.335 Q2098.81 159.335 2100.43 158.317 Q2102.05 157.275 2102.05 155.4 Q2102.05 153.664 2100.87 152.738 Q2099.71 151.812 2095.75 150.956 L2094.27 150.608 Q2090.31 149.775 2088.55 148.062 Q2086.8 146.326 2086.8 143.317 Q2086.8 139.659 2089.39 137.669 Q2091.98 135.678 2096.75 135.678 Q2099.11 135.678 2101.19 136.025 Q2103.28 136.372 2105.04 137.067 Z" fill="#000000" fill-rule="nonzero" fill-opacity="1" /><path clip-path="url(#clip100)" d="M2117.42 128.942 L2117.42 136.303 L2126.19 136.303 L2126.19 139.613 L2117.42 139.613 L2117.42 153.687 Q2117.42 156.858 2118.28 157.761 Q2119.16 158.664 2121.82 158.664 L2126.19 158.664 L2126.19 162.229 L2121.82 162.229 Q2116.89 162.229 2115.01 160.4 Q2113.14 158.548 2113.14 153.687 L2113.14 139.613 L2110.01 139.613 L2110.01 136.303 L2113.14 136.303 L2113.14 128.942 L2117.42 128.942 Z" fill="#000000" fill-rule="nonzero" fill-opacity="1" /><path clip-path="url(#clip100)" d="M2131.79 136.303 L2136.05 136.303 L2136.05 162.229 L2131.79 162.229 L2131.79 136.303 M2131.79 126.21 L2136.05 126.21 L2136.05 131.604 L2131.79 131.604 L2131.79 126.21 Z" fill="#000000" fill-rule="nonzero" fill-opacity="1" /><path clip-path="url(#clip100)" d="M2165.15 141.28 Q2166.75 138.409 2168.97 137.044 Q2171.19 135.678 2174.2 135.678 Q2178.25 135.678 2180.45 138.525 Q2182.65 141.349 2182.65 146.581 L2182.65 162.229 L2178.37 162.229 L2178.37 146.719 Q2178.37 142.993 2177.05 141.187 Q2175.73 139.382 2173.02 139.382 Q2169.71 139.382 2167.79 141.581 Q2165.87 143.78 2165.87 147.576 L2165.87 162.229 L2161.59 162.229 L2161.59 146.719 Q2161.59 142.969 2160.27 141.187 Q2158.95 139.382 2156.19 139.382 Q2152.93 139.382 2151.01 141.604 Q2149.09 143.803 2149.09 147.576 L2149.09 162.229 L2144.8 162.229 L2144.8 136.303 L2149.09 136.303 L2149.09 140.331 Q2150.54 137.946 2152.58 136.812 Q2154.62 135.678 2157.42 135.678 Q2160.24 135.678 2162.21 137.113 Q2164.2 138.548 2165.15 141.28 Z" fill="#000000" fill-rule="nonzero" fill-opacity="1" /><path clip-path="url(#clip100)" d="M2202.93 149.196 Q2197.77 149.196 2195.78 150.377 Q2193.79 151.557 2193.79 154.405 Q2193.79 156.673 2195.27 158.016 Q2196.77 159.335 2199.34 159.335 Q2202.88 159.335 2205.01 156.835 Q2207.16 154.312 2207.16 150.145 L2207.16 149.196 L2202.93 149.196 M2211.42 147.437 L2211.42 162.229 L2207.16 162.229 L2207.16 158.293 Q2205.71 160.655 2203.53 161.789 Q2201.35 162.9 2198.21 162.9 Q2194.23 162.9 2191.86 160.678 Q2189.53 158.432 2189.53 154.682 Q2189.53 150.307 2192.44 148.085 Q2195.38 145.863 2201.19 145.863 L2207.16 145.863 L2207.16 145.446 Q2207.16 142.507 2205.22 140.909 Q2203.3 139.289 2199.8 139.289 Q2197.58 139.289 2195.48 139.821 Q2193.37 140.354 2191.42 141.419 L2191.42 137.483 Q2193.76 136.581 2195.96 136.141 Q2198.16 135.678 2200.24 135.678 Q2205.87 135.678 2208.65 138.594 Q2211.42 141.511 2211.42 147.437 Z" fill="#000000" fill-rule="nonzero" fill-opacity="1" /><path clip-path="url(#clip100)" d="M2224.41 128.942 L2224.41 136.303 L2233.18 136.303 L2233.18 139.613 L2224.41 139.613 L2224.41 153.687 Q2224.41 156.858 2225.27 157.761 Q2226.15 158.664 2228.81 158.664 L2233.18 158.664 L2233.18 162.229 L2228.81 162.229 Q2223.88 162.229 2222 160.4 Q2220.13 158.548 2220.13 153.687 L2220.13 139.613 L2217 139.613 L2217 136.303 L2220.13 136.303 L2220.13 128.942 L2224.41 128.942 Z" fill="#000000" fill-rule="nonzero" fill-opacity="1" /><path clip-path="url(#clip100)" d="M2260.96 148.201 L2260.96 150.284 L2241.38 150.284 Q2241.66 154.682 2244.02 156.997 Q2246.4 159.289 2250.64 159.289 Q2253.09 159.289 2255.38 158.687 Q2257.7 158.085 2259.97 156.881 L2259.97 160.909 Q2257.67 161.881 2255.27 162.391 Q2252.86 162.9 2250.38 162.9 Q2244.18 162.9 2240.54 159.289 Q2236.93 155.678 2236.93 149.52 Q2236.93 143.155 2240.36 139.428 Q2243.81 135.678 2249.64 135.678 Q2254.87 135.678 2257.91 139.057 Q2260.96 142.414 2260.96 148.201 M2256.7 146.951 Q2256.66 143.456 2254.73 141.372 Q2252.84 139.289 2249.69 139.289 Q2246.12 139.289 2243.97 141.303 Q2241.84 143.317 2241.52 146.974 L2256.7 146.951 Z" fill="#000000" fill-rule="nonzero" fill-opacity="1" /></svg>
